<mxfile host="app.diagrams.net" modified="2023-09-25T10:24:11.933Z" agent="Mozilla/5.0 (Windows NT 10.0; Win64; x64) AppleWebKit/537.36 (KHTML, like Gecko) Chrome/116.0.0.0 Safari/537.36" etag="_yki4U7LF8csT91viZJl" version="21.8.2" type="google">
  <diagram name="Page-1" id="3tlE_d8VtLV6HnLBDmvj">
    <mxGraphModel grid="1" page="1" gridSize="10" guides="1" tooltips="1" connect="1" arrows="1" fold="1" pageScale="1" pageWidth="827" pageHeight="1169" math="0" shadow="0">
      <root>
        <mxCell id="0" />
        <mxCell id="1" parent="0" />
        <mxCell id="P5yuw_WjMYAPieBN5cz5-31" value="" style="rounded=0;whiteSpace=wrap;html=1;" vertex="1" parent="1">
          <mxGeometry x="60" y="10" width="714" height="440" as="geometry" />
        </mxCell>
        <mxCell id="P5yuw_WjMYAPieBN5cz5-23" value="" style="edgeStyle=orthogonalEdgeStyle;rounded=0;orthogonalLoop=1;jettySize=auto;html=1;endArrow=none;endFill=0;strokeWidth=2;" edge="1" parent="1" source="9_0qwBl83ulml5-Zglmz-1" target="9_0qwBl83ulml5-Zglmz-5">
          <mxGeometry relative="1" as="geometry" />
        </mxCell>
        <mxCell id="P5yuw_WjMYAPieBN5cz5-26" value="" style="edgeStyle=orthogonalEdgeStyle;rounded=0;orthogonalLoop=1;jettySize=auto;html=1;endArrow=none;endFill=0;strokeWidth=2;" edge="1" parent="1" source="9_0qwBl83ulml5-Zglmz-1" target="9_0qwBl83ulml5-Zglmz-6">
          <mxGeometry relative="1" as="geometry" />
        </mxCell>
        <mxCell id="9_0qwBl83ulml5-Zglmz-1" value="Home" style="rounded=1;whiteSpace=wrap;html=1;" vertex="1" parent="1">
          <mxGeometry x="354" y="50" width="120" height="60" as="geometry" />
        </mxCell>
        <mxCell id="P5yuw_WjMYAPieBN5cz5-28" value="" style="edgeStyle=orthogonalEdgeStyle;rounded=0;orthogonalLoop=1;jettySize=auto;html=1;strokeWidth=2;endArrow=none;endFill=0;" edge="1" parent="1" source="9_0qwBl83ulml5-Zglmz-3" target="9_0qwBl83ulml5-Zglmz-7">
          <mxGeometry relative="1" as="geometry" />
        </mxCell>
        <mxCell id="9_0qwBl83ulml5-Zglmz-3" value="Profil Utilisateur" style="rounded=1;whiteSpace=wrap;html=1;" vertex="1" parent="1">
          <mxGeometry x="354" y="250" width="120" height="60" as="geometry" />
        </mxCell>
        <mxCell id="P5yuw_WjMYAPieBN5cz5-30" value="" style="edgeStyle=orthogonalEdgeStyle;rounded=0;orthogonalLoop=1;jettySize=auto;html=1;endArrow=none;endFill=0;strokeWidth=2;" edge="1" parent="1" source="9_0qwBl83ulml5-Zglmz-4" target="9_0qwBl83ulml5-Zglmz-3">
          <mxGeometry relative="1" as="geometry" />
        </mxCell>
        <mxCell id="9_0qwBl83ulml5-Zglmz-4" value="Modifier le Compte" style="rounded=1;whiteSpace=wrap;html=1;" vertex="1" parent="1">
          <mxGeometry x="540" y="250" width="120" height="60" as="geometry" />
        </mxCell>
        <mxCell id="P5yuw_WjMYAPieBN5cz5-16" value="" style="edgeStyle=orthogonalEdgeStyle;rounded=0;orthogonalLoop=1;jettySize=auto;html=1;endArrow=none;endFill=0;strokeWidth=2;" edge="1" parent="1" source="9_0qwBl83ulml5-Zglmz-5" target="9_0qwBl83ulml5-Zglmz-3">
          <mxGeometry relative="1" as="geometry" />
        </mxCell>
        <mxCell id="9_0qwBl83ulml5-Zglmz-5" value="Connection" style="rounded=1;whiteSpace=wrap;html=1;" vertex="1" parent="1">
          <mxGeometry x="354" y="150" width="120" height="60" as="geometry" />
        </mxCell>
        <mxCell id="9_0qwBl83ulml5-Zglmz-6" value="CrÃ©er un compte" style="rounded=1;whiteSpace=wrap;html=1;" vertex="1" parent="1">
          <mxGeometry x="520" y="50" width="120" height="60" as="geometry" />
        </mxCell>
        <mxCell id="9_0qwBl83ulml5-Zglmz-7" value="Supprimer le compte" style="rounded=1;whiteSpace=wrap;html=1;" vertex="1" parent="1">
          <mxGeometry x="354" y="350" width="120" height="60" as="geometry" />
        </mxCell>
        <mxCell id="P5yuw_WjMYAPieBN5cz5-29" value="" style="edgeStyle=orthogonalEdgeStyle;rounded=0;orthogonalLoop=1;jettySize=auto;html=1;strokeWidth=2;endArrow=none;endFill=0;" edge="1" parent="1" source="9_0qwBl83ulml5-Zglmz-8" target="9_0qwBl83ulml5-Zglmz-3">
          <mxGeometry relative="1" as="geometry" />
        </mxCell>
        <mxCell id="9_0qwBl83ulml5-Zglmz-8" value="Favoris" style="rounded=1;whiteSpace=wrap;html=1;" vertex="1" parent="1">
          <mxGeometry x="170" y="250" width="120" height="60" as="geometry" />
        </mxCell>
      </root>
    </mxGraphModel>
  </diagram>
</mxfile>
